HIERARCHY
ROOT Hips
{
	OFFSET 0.00000 0.00000 0.00000
	CHANNELS 6 Xposition Yposition Zposition Zrotation Yrotation Xrotation 
	JOINT LHipJoint
	{
		OFFSET 0 0 0
		CHANNELS 3 Zrotation Yrotation Xrotation
		JOINT LeftUpLeg
		{
			OFFSET 1.44960 -1.75505 0.85172
			CHANNELS 3 Zrotation Yrotation Xrotation
			JOINT LeftLeg
			{
				OFFSET 2.40573 -6.60971 0.00000
				CHANNELS 3 Zrotation Yrotation Xrotation
				JOINT LeftFoot
				{
					OFFSET 2.58773 -7.10974 0.00000
					CHANNELS 3 Zrotation Yrotation Xrotation
					JOINT LeftToeBase
					{
						OFFSET 0.18252 -0.50147 1.77316
						CHANNELS 3 Zrotation Yrotation Xrotation
						End Site
						{
							OFFSET 0.00000 -0.00000 0.92990
						}
					}
				}
			}
		}
	}
	JOINT RHipJoint
	{
		OFFSET 0 0 0
		CHANNELS 3 Zrotation Yrotation Xrotation
		JOINT RightUpLeg
		{
			OFFSET -1.40744 -1.75505 0.85172
			CHANNELS 3 Zrotation Yrotation Xrotation
			JOINT RightLeg
			{
				OFFSET -2.43714 -6.69600 0.00000
				CHANNELS 3 Zrotation Yrotation Xrotation
				JOINT RightFoot
				{
					OFFSET -2.51650 -6.91404 0.00000
					CHANNELS 3 Zrotation Yrotation Xrotation
					JOINT RightToeBase
					{
						OFFSET -0.25383 -0.69740 1.96384
						CHANNELS 3 Zrotation Yrotation Xrotation
						End Site
						{
							OFFSET -0.00000 -0.00000 1.04244
						}
					}
				}
			}
		}
	}
	JOINT LowerBack
	{
		OFFSET 0 0 0
		CHANNELS 3 Zrotation Yrotation Xrotation
		JOINT Spine
		{
			OFFSET 0.00579 2.14458 -0.24367
			CHANNELS 3 Zrotation Yrotation Xrotation
			JOINT Spine1
			{
				OFFSET 0.05899 2.16316 -0.04515
				CHANNELS 3 Zrotation Yrotation Xrotation
				JOINT Neck
				{
					OFFSET 0 0 0
					CHANNELS 3 Zrotation Yrotation Xrotation
					JOINT Neck1
					{
						OFFSET -0.01650 1.59577 0.24841
						CHANNELS 3 Zrotation Yrotation Xrotation
						JOINT Head
						{
							OFFSET -0.01016 1.63072 -0.17782
							CHANNELS 3 Zrotation Yrotation Xrotation
							End Site
							{
								OFFSET -0.00250 1.64111 -0.08717
							}
						}
					}
				}
				JOINT LeftShoulder
				{
					OFFSET 0 0 0
					CHANNELS 3 Zrotation Yrotation Xrotation
					JOINT LeftArm
					{
						OFFSET 3.17745 0.95174 -0.45729
						CHANNELS 3 Zrotation Yrotation Xrotation
						JOINT LeftForeArm
						{
							OFFSET 4.93485 -0.00000 0.00000
							CHANNELS 3 Zrotation Yrotation Xrotation
							JOINT LeftHand
							{
								OFFSET 3.41719 -0.00000 -0.00000
								CHANNELS 3 Zrotation Yrotation Xrotation
								JOINT LeftFingerBase
								{
									OFFSET 0 0 0
									CHANNELS 3 Zrotation Yrotation Xrotation
									JOINT LeftHandIndex1
									{
										OFFSET 0.62410 -0.00000 -0.00000
										CHANNELS 3 Zrotation Yrotation Xrotation
										End Site
										{
											OFFSET 0.50317 -0.00000 -0.00000
										}
									}
								}
								JOINT LThumb
								{
									OFFSET 0 0 0
									CHANNELS 3 Zrotation Yrotation Xrotation
									End Site
									{
										OFFSET 0.51085 -0.00000 0.51085
									}
								}
							}
						}
					}
				}
				JOINT RightShoulder
				{
					OFFSET 0 0 0
					CHANNELS 3 Zrotation Yrotation Xrotation
					JOINT RightArm
					{
						OFFSET -2.87924 1.13038 -0.75204
						CHANNELS 3 Zrotation Yrotation Xrotation
						JOINT RightForeArm
						{
							OFFSET -5.22034 -0.00000 0.00000
							CHANNELS 3 Zrotation Yrotation Xrotation
							JOINT RightHand
							{
								OFFSET -3.41809 -0.00000 -0.00000
								CHANNELS 3 Zrotation Yrotation Xrotation
								JOINT RightFingerBase
								{
									OFFSET 0 0 0
									CHANNELS 3 Zrotation Yrotation Xrotation
									JOINT RightHandIndex1
									{
										OFFSET -0.77534 -0.00000 -0.00000
										CHANNELS 3 Zrotation Yrotation Xrotation
										End Site
										{
											OFFSET -0.62510 -0.00000 -0.00000
										}
									}
								}
								JOINT RThumb
								{
									OFFSET 0 0 0
									CHANNELS 3 Zrotation Yrotation Xrotation
									End Site
									{
										OFFSET -0.63464 -0.00000 0.63464
									}
								}
							}
						}
					}
				}
			}
		}
	}
}
MOTION
Frames: 7
Frame Time: .0083333
1.7701 17.426 -35.8553 0 0 0 0 0 0 -21 0 0 0 0 0 0 0 0 0 0 0 0 0 0 21 0 0 0 0 0 0 0 0 0 0 0 0 0 0 0 0 0 0 0 0 0 0 -16 0 0 21 0 0 11 0 0 0 -8 0 0 0 0 0 0 0 0 0 0 0 0 0 0 0 0 0 0 0 0 8 0 0 0 0 0 0 0 0 0 0 0 0 0 0 0 0 0
1.7701 17.4260 -35.8553 -1.1495 6.6656 5.6935 0.0000 0.0000 0.0000 -21.9453 -6.6418 -11.8652 2.2308 9.3311 26.8365 1.3495 -10.1466 -20.9238 0.0023 0.3090 0.8490 0.0000 0.0000 0.0000 21.1558 0.3198 -19.1093 -4.2929 -12.5403 37.6711 -1.2036 5.7661 -19.6300 -0.3108 -3.5838 9.9085 -5.3337 -1.8585 3.0564 1.7855 -2.5824 3.3386 4.8649 -1.4358 2.0576 -7.4250 -4.0162 -5.0342 0.1098 -4.5503 40.3917 0.7501 -3.0443 15.1928 -0.0000 -0.0000 0.0000 -84.9450 4.8176 10.2860 19.9000 -30.5216 -5.4805 -0.0000 -0.0000 8.9995 2.0009 41.4670 1.3252 -7.1250 0.0000 -0.0000 -45.3149 65.9863 -25.1300 -0.0000 -0.0000 0.0000 81.7583 2.5337 -9.4905 -9.6004 16.1121 -1.3619 0.0000 0.0000 5.4853 -24.8432 27.8400 -12.2003 7.1250 -0.0000 -0.0000 3.2464 0.1763 3.2616
1.7687 17.4185 -35.8481 -1.1773 6.6745 5.7013 0.0000 0.0000 0.0000 -21.8980 -6.6557 -11.9118 2.2519 9.3721 26.9665 1.3774 -10.1745 -21.1346 0.0002 -0.0982 -0.2699 0.0000 0.0000 0.0000 21.2319 0.1531 -18.6024 -4.0716 -12.2551 36.6404 -1.1957 6.4436 -19.5385 -0.4513 -4.3099 11.9502 -5.2378 -1.8732 2.9470 1.7148 -2.5938 3.3565 4.7326 -1.4406 2.1303 -7.4901 -3.8233 -4.6939 0.3044 -4.3448 40.0625 0.8838 -2.9396 14.9433 -0.0000 0.0000 0.0000 -84.8265 4.9627 10.6884 20.3269 -31.0342 -5.6989 -0.0000 -0.0000 8.1781 1.6330 42.3251 1.0997 -7.1250 0.0000 -0.0000 -47.0916 66.4637 -26.7951 -0.0000 0.0000 0.0000 81.8612 2.5865 -9.6143 -9.5314 16.0033 -1.3429 0.0000 0.0000 5.6095 -25.0793 28.3863 -12.5434 7.1250 -0.0000 -0.0000 3.1878 0.7998 3.2370
1.7643 17.4159 -35.8397 -1.1709 6.6387 5.6816 0.0000 0.0000 0.0000 -21.8898 -6.6152 -11.9771 2.2846 9.4353 27.1666 1.4077 -10.2625 -21.3667 0.0001 -0.0749 -0.2057 0.0000 0.0000 0.0000 21.3316 0.1634 -18.0268 -3.8646 -11.9781 35.6545 -1.3056 5.7093 -20.4738 -0.3190 -3.6307 10.0399 -5.2365 -1.8782 2.9936 1.6418 -2.6028 3.2877 4.6589 -1.4394 2.0300 -7.5732 -3.5841 -4.4476 0.4686 -4.0492 40.0345 1.0138 -2.8070 14.8634 -0.0000 0.0000 0.0000 -84.7443 4.9398 10.6526 20.4429 -31.1722 -5.7588 -0.0000 -0.0000 7.7326 1.8341 41.2065 1.2085 -7.1250 0.0000 -0.0000 -45.0536 65.7559 -24.7298 -0.0000 0.0000 0.0000 81.9655 2.3788 -9.3317 -9.5406 16.0177 -1.3454 0.0000 0.0000 5.3837 -25.1641 28.3541 -12.5776 7.1250 -0.0000 -0.0000 3.1334 0.7850 3.1808
1.7569 17.4105 -35.8342 -1.3279 6.7256 5.6190 0.0000 0.0000 0.0000 -21.6869 -6.8392 -11.9100 2.3163 9.4960 27.3595 1.4208 -10.1069 -21.4469 0.0012 -0.2260 -0.6210 0.0000 0.0000 0.0000 21.6201 0.0776 -17.4618 -3.6745 -11.7143 34.7285 -1.3875 5.1952 -21.1706 -0.3092 -3.5751 9.8844 -5.1607 -1.8381 2.9933 1.6827 -2.5475 3.3585 4.6572 -1.4142 2.0952 -7.5406 -3.5583 -4.5553 0.4733 -4.0035 40.0025 1.0149 -2.7793 14.8679 0.0000 -0.0000 0.0000 -84.7371 4.8538 11.0541 20.8708 -31.6772 -5.9819 -0.0000 -0.0000 7.0710 1.9104 42.6865 1.2955 -7.1250 0.0000 -0.0000 -47.4567 66.7898 -27.3778 0.0000 -0.0000 0.0000 82.0137 2.4394 -9.3360 -9.6034 16.1168 -1.3628 0.0000 0.0000 5.0581 -25.5659 28.5111 -12.8629 7.1250 -0.0000 -0.0000 2.9222 1.0393 2.9785
1.7542 17.4100 -35.8239 -1.4588 6.6098 5.8126 0.0000 0.0000 0.0000 -21.5300 -7.1880 -12.1043 2.3423 9.5453 27.5164 1.4107 -9.9411 -21.3571 0.0038 0.3966 1.0897 0.0000 0.0000 0.0000 21.8652 0.3360 -17.0339 -3.4943 -11.4553 33.8311 -1.4145 5.3723 -21.3668 -0.4321 -4.2183 11.6917 -5.0887 -1.8115 2.6289 1.7097 -2.4942 3.3575 4.6314 -1.3917 2.2899 -7.6101 -3.6020 -4.5415 0.5178 -4.0728 39.9152 1.0369 -2.8125 14.8289 0.0000 0.0000 0.0000 -84.7253 4.6415 11.1496 21.0651 -31.9043 -6.0843 -0.0000 -0.0000 6.6047 1.2821 43.2047 0.8778 -7.1250 0.0000 -0.0000 -48.9551 66.9395 -28.5687 0.0000 0.0000 0.0000 81.9975 2.3188 -8.7742 -9.6948 16.2608 -1.3883 0.0000 0.0000 4.3641 -25.5350 28.6008 -12.8814 7.1250 -0.0000 -0.0000 2.9539 1.1263 3.0154
1.7454 17.4044 -35.8262 -1.6345 6.6456 5.9082 0.0000 0.0000 0.0000 -21.2723 -7.3212 -12.3236 2.3768 9.6104 27.7240 1.3971 -9.6623 -21.2321 0.0021 -0.2940 -0.8078 0.0000 0.0000 0.0000 22.2163 0.5669 -16.6358 -3.3332 -11.2159 33.0114 -1.4457 4.9173 -21.6562 -0.3450 -3.7743 10.4427 -4.9115 -1.8090 2.5711 1.7080 -2.4863 3.3430 4.5278 -1.3833 2.2971 -7.5616 -3.5973 -4.5683 0.4230 -4.0349 39.9650 0.9930 -2.8014 14.8540 -0.0000 0.0000 0.0000 -84.7190 4.4722 11.0954 21.2355 -32.1022 -6.1746 -0.0000 -0.0000 5.8594 1.6730 41.7434 1.1140 -7.1250 0.0000 -0.0000 -46.0779 66.0802 -25.7266 -0.0000 0.0000 0.0000 82.1468 2.3414 -8.8626 -9.7236 16.3061 -1.3963 0.0000 0.0000 4.2158 -25.8418 28.4979 -13.0116 7.1250 -0.0000 -0.0000 2.7590 1.0879 2.8141
